<?xml version="1.0" encoding="UTF-8" standalone="no"?>
<!DOCTYPE svg PUBLIC "-//W3C//DTD SVG 1.1//EN" "http://www.w3.org/Graphics/SVG/1.1/DTD/svg11.dtd">
<svg version="1.1" xmlns="http://www.w3.org/2000/svg" xmlns:xlink="http://www.w3.org/1999/xlink" preserveAspectRatio="xMidYMid meet" viewBox="0 0 161 106" width="161" height="106"><defs><path d="M45.75 2.2L68.58 63.3L133.19 61.43L147.27 30.19L161.36 30.19L142.42 72.63L57.9 74.03L38.47 18.06L3.01 18.06L3.01 1.27L45.75 2.2Z" id="akJcTYZvh"></path><path d="M70.27 103C63.7 103 58.36 97.76 58.36 91.3C58.36 84.85 63.7 79.61 70.27 79.61C76.85 79.61 82.18 84.85 82.18 91.3C82.18 97.76 76.85 103 70.27 103Z" id="g6KSnCbUI"></path><path d="M126.17 103C119.6 103 114.26 97.76 114.26 91.3C114.26 84.85 119.6 79.61 126.17 79.61C132.74 79.61 138.08 84.85 138.08 91.3C138.08 97.76 132.74 103 126.17 103Z" id="a5yUa4B3uJ"></path></defs><g><g><g><use xlink:href="#akJcTYZvh" opacity="1" fill="#fefefe" fill-opacity="1"></use><g><use xlink:href="#akJcTYZvh" opacity="1" fill-opacity="0" stroke="#ffffff" stroke-width="1" stroke-opacity="1"></use></g></g><g><use xlink:href="#g6KSnCbUI" opacity="1" fill="#fefefe" fill-opacity="1"></use><g><use xlink:href="#g6KSnCbUI" opacity="1" fill-opacity="0" stroke="#000000" stroke-width="1" stroke-opacity="0"></use></g></g><g><use xlink:href="#a5yUa4B3uJ" opacity="1" fill="#fefefe" fill-opacity="1"></use><g><use xlink:href="#a5yUa4B3uJ" opacity="1" fill-opacity="0" stroke="#000000" stroke-width="1" stroke-opacity="0"></use></g></g></g></g></svg>